<svg width="3387" height="607" viewBox="0 0 3387 607" fill="none" xmlns="http://www.w3.org/2000/svg">
<g opacity="0.5">
<path d="M2838.79 293.58C2838.79 259.104 2845.78 235.602 2857.17 220.405L2880.82 124.914C2800.88 134.584 2749.32 187.859 2749.32 295.623C2749.32 362.36 2769.1 410.732 2802.66 440.505L2838.79 294.61L2838.79 293.58Z" fill="#9E94E0"/>
<path d="M3026.66 166.539L2982.92 252.029H3063.5C3061.06 217.293 3048.03 188.217 3026.66 166.539Z" fill="#9E94E0"/>
<path d="M2867.89 472.374C2842.98 467.204 2821.08 456.7 2803.11 440.898L2881.06 417.112L2867.89 472.374Z" fill="#9E94E0"/>
<path d="M3062.81 346.029C3053.8 418.06 2997.65 468.405 2923.69 475.316L3009.99 346.029H3062.81Z" fill="#9E94E0"/>
<path d="M2909.22 484.741C2911.99 484.741 2914.76 484.688 2917.51 484.582L2835.8 607L2865.99 480.343C2879.94 483.225 2894.4 484.741 2909.22 484.741Z" fill="#9E94E0"/>
<path d="M2857.24 130.071L2880.88 125.05L2804.41 442.12L2787.76 424.9L2857.24 130.071Z" fill="#9E94E0"/>
</g>
</svg>
